# xmcd
# 
# Track frame offsets:
#     150
#     12188
#     21516
#     34226
#     44832
#     55447
#     74679
#     88406
#     102820
#     112748
#     124220
#     135088
#     141803
#     154720
#     170235
#     179692
#     191657
#     202413
#     212358
#     230189
# 
# Disc length: 3237
# 
# Revision: 0
# Processed by: cddbd v1.5.2PL0 Copyright (c) Steve Scherf et al.
# Submitted via: fre:ac v1.0.17
# 
DISCID=370ca314
DTITLE=Eric Clapton and Friends - Strictly The Blues
DYEAR=1998
DGENRE=Blues
TTITLE0=Clapton, Eric with The Yardbirds - Got To Hurry
TTITLE1=Clapton, Eric with The Yardbirds - I Ain't Got You
TTITLE2=Clapton, Eric with The Yardbirds - Good Morning Little Schoolgirl
TTITLE3=Clapton, Eric with The Yardbirds - Let It Rock
TTITLE4=Clapton, Eric with The Yardbirds - A Certain Girl
TTITLE5=Clapton, Eric with The Yardbirds - Take It Easy Baby
TTITLE6=Clapton, Eric with The Immediate All-Stars - Too Much Monkey Business
TTITLE7=Clapton, Eric with The Immediate All-Stars - Draggin' My Tail
TTITLE8=Clapton, Eric with The Immediate All-Stars - Tribute To Elmore
TTITLE9=Clapton, Eric with The Immediate All-Stars - Snake Drive
TTITLE10=Clapton, Eric with The Immediate All-Stars - West Coast Idea
TTITLE11=Clapton, Eric with The Immediate All-Stars - Choker
TTITLE12=Clapton, Eric with The Immediate All-Stars - Freight Loader
TTITLE13=Page, Jimmy with The Immediate All-Stars - Down In The Boots
TTITLE14=Page, Jimmy with The Immediate All-Stars - LA Breakdown
TTITLE15=Beck, Jeff with The Immediate All-Stars - Steelin'
TTITLE16=Beck, Jeff with The Immediate All-Stars - Chuckles
TTITLE17=Clapton, Eric with John Mayall's Bluesbreakers - I'm Your Witchdoctor
TTITLE18=Clapton, Eric with John Mayall's Bluesbreakers - Telephone Blues
TTITLE19=Clapton, Eric with John Mayall's Bluesbreakers - On Top Of The World
EXTD=
EXTT0=
EXTT1=
EXTT2=
EXTT3=
EXTT4=
EXTT5=
EXTT6=
EXTT7=
EXTT8=
EXTT9=
EXTT10=
EXTT11=
EXTT12=
EXTT13=
EXTT14=
EXTT15=
EXTT16=
EXTT17=
EXTT18=
EXTT19=
PLAYORDER=
